<svg xmlns="http://www.w3.org/2000/svg" width="16" height="16.156" viewBox="0 0 16 16.156">
  <metadata><?xpacket begin="﻿" id="W5M0MpCehiHzreSzNTczkc9d"?>
<x:xmpmeta xmlns:x="adobe:ns:meta/" x:xmptk="Adobe XMP Core 5.6-c142 79.160924, 2017/07/13-01:06:39        ">
   <rdf:RDF xmlns:rdf="http://www.w3.org/1999/02/22-rdf-syntax-ns#">
      <rdf:Description rdf:about=""/>
   </rdf:RDF>
</x:xmpmeta>
                                                                                                    
                                                                                                    
                                                                                                    
                                                                                                    
                                                                                                    
                                                                                                    
                                                                                                    
                                                                                                    
                                                                                                    
                                                                                                    
                                                                                                    
                                                                                                    
                                                                                                    
                                                                                                    
                                                                                                    
                                                                                                    
                                                                                                    
                                                                                                    
                                                                                                    
                                                                                                    
                           
<?xpacket end="w"?></metadata>
<defs>
    <style>
      .cls-1 {
        fill: #ddd;
        fill-rule: evenodd;
      }
    </style>
  </defs>
  <path id="speech_bubbles_copy" data-name="speech bubbles copy" class="cls-1" d="M118,774.969V779l-0.057-.058-3.5-3.724-0.129,0-0.246-.252H110a2,2,0,0,1-2-2V768a2,2,0,0,1,2-2h8a2,2,0,0,1,2,2v4.969A2,2,0,0,1,118,774.969Zm-4.472,1,1.553,1.708A1.983,1.983,0,0,1,114,778h-4.114l-3.792,4.156V778H106a2,2,0,0,1-2-2v-5a2,2,0,0,1,2-2h1v4.969a2,2,0,0,0,2,2h4.528Z" transform="translate(-104 -766)"/>
</svg>
